<?xml version="1.0" encoding="utf-8"?>
<!-- Generator: Adobe Illustrator 18.0.0, SVG Export Plug-In . SVG Version: 6.00 Build 0)  -->
<!DOCTYPE svg PUBLIC "-//W3C//DTD SVG 1.1//EN" "http://www.w3.org/Graphics/SVG/1.1/DTD/svg11.dtd">
<svg version="1.1" id="Layer_1" xmlns="http://www.w3.org/2000/svg" xmlns:xlink="http://www.w3.org/1999/xlink" x="0px" y="0px"
	 viewBox="0 0 685.3 274.5" enable-background="new 0 0 685.3 274.5" xml:space="preserve">
<text transform="matrix(0.9682 0 0 1 115.8561 248.4414)" fill="#FFFFFF" font-family="'Gotham-Black'" font-size="150.1441" letter-spacing="-12.4">Reporter</text>
<path fill="#FFFFFF" d="M28.3,88.2l6.2-6.2c-14.3-14.3-14.3-37.5,0-51.8l-6.2-6.2C10.7,41.8,10.7,70.5,28.3,88.2z"/>
<path fill="#FFFFFF" d="M39.3,77.2l6.2-6.2c-8.2-8.2-8.2-21.6,0-29.8l-6.2-6.2C27.7,46.7,27.7,65.6,39.3,77.2z"/>
<g>
	<path fill="#FFFFFF" d="M124,82l6.2,6.2c17.7-17.7,17.7-46.4,0-64.1l-6.2,6.2C138.2,44.5,138.2,67.8,124,82z"/>
	<path fill="#FFFFFF" d="M119.1,77.2c11.6-11.6,11.6-30.5,0-42.1l-6.1,6.2c8.2,8.2,8.2,21.6,0,29.8L119.1,77.2z"/>
	<path fill="#FFFFFF" d="M143.1,13.4l-6.2,6.2c20.2,20.1,20.2,52.9,0,73.1l6.1,6.2C166.7,75.3,166.7,37,143.1,13.4z"/>
</g>
<path fill="#FFFFFF" d="M23.9,19.6l-6.2-6.2C-5.9,37-5.9,75.3,17.7,98.9l6.1-6.2C3.7,72.6,3.7,39.7,23.9,19.6z"/>
<polygon fill="#FFFFFF" points="35.6,248.4 79.5,53.8 123.4,248.4 "/>
<circle fill="#FFFFFF" cx="79.5" cy="53.8" r="26.5"/>
</svg>
