<?xml version="1.0" encoding="utf-8"?>
<!-- Generator: Adobe Illustrator 18.0.0, SVG Export Plug-In . SVG Version: 6.00 Build 0)  -->
<!DOCTYPE svg PUBLIC "-//W3C//DTD SVG 1.1//EN" "http://www.w3.org/Graphics/SVG/1.1/DTD/svg11.dtd">
<svg version="1.1" id="Layer_1" xmlns="http://www.w3.org/2000/svg" xmlns:xlink="http://www.w3.org/1999/xlink" x="0px" y="0px"
	 viewBox="0 0 940.4 354.8" enable-background="new 0 0 940.4 354.8" xml:space="preserve">
<g>
	
		<text transform="matrix(0.9682 0 0 1 158.6592 321.85)" fill="#DB1D41" font-family="'Gotham-Black'" font-size="205.6153" letter-spacing="-16.5">Reporter</text>
	<path fill="#2E1F1C" d="M38.8,102.4l8.5-8.5c-19.5-19.5-19.5-51.4,0-70.9l-8.5-8.5C14.6,38.8,14.6,78.2,38.8,102.4z"/>
	<path fill="#2E1F1C" d="M53.9,87.3l8.5-8.5c-11.2-11.2-11.2-29.5,0-40.8l-8.5-8.4C38,45.6,38,71.5,53.9,87.3z"/>
	<g>
		<path fill="#2E1F1C" d="M169.8,94l8.5,8.5c24.2-24.2,24.2-63.6,0-87.8l-8.5,8.5C189.3,42.6,189.3,74.4,169.8,94z"/>
		<path fill="#2E1F1C" d="M163.1,87.3c15.9-15.9,15.9-41.8,0-57.6l-8.4,8.4c11.2,11.3,11.2,29.5,0,40.8L163.1,87.3z"/>
		<path fill="#2E1F1C" d="M196,0l-8.5,8.5c27.6,27.6,27.6,72.5,0,100.1l8.4,8.5C228.3,84.8,228.3,32.2,196,0z"/>
	</g>
	<path fill="#2E1F1C" d="M32.7,8.5L24.2,0c-32.3,32.2-32.3,84.8,0,117l8.4-8.5C5,81,5,36,32.7,8.5z"/>
	<polygon fill="#2E1F1C" points="48.7,321.9 108.8,55.2 169,321.9 	"/>
	<circle fill="#2E1F1C" cx="108.8" cy="55.2" r="36.3"/>
</g>
</svg>
